<svg id="access" xmlns="http://www.w3.org/2000/svg" viewBox="0 0 458.82 516.71"><defs><style>.cls-1{fill:#424242;}</style></defs><title>access</title><path class="cls-1" d="M162.56,307.6l-17.05,9.81c3.94,12.65,3.28,24.86-4,36.15A36.43,36.43,0,0,1,121,368.94a38,38,0,0,1-44.81-18.62c-8.7-16.47-4.63-38.23,10-49.16,16.19-12.06,32.23-14.28,53.19,5.13l16.71-9.66c-10.61-24.49-11-49-.21-73.59l-16.75-10.9c-7.5,10.22-17.75,14.57-29.89,14.56-8.76,0-17-2.57-23.34-8.6-14.73-14-19.85-32.72-7.13-53.88,8.63-14.35,29.57-20,46.26-13s27.78,28.46,20.63,50.09l16.78,9.73C177.76,190,197.59,176.74,224,174.66V154c-9.43-2.07-17.71-6.3-23.38-14.34-6.9-9.81-10.11-20.71-7.33-32.66,4.33-18.64,18.84-31.92,39.31-31.13,18.36.72,33.86,15.73,35.91,35.13,1.87,17.66-8.81,38.61-31.39,43v20.65c26.31,2,46.29,15.25,61.67,36.46l16.94-9.72c-4.67-13.23-2.59-25.68,4.71-37.19,4.53-7.16,11.31-11.83,19.38-14.41,17.82-5.7,35.7,1.67,43.59,15.06,14.1,23.93,4.61,42.82-8.51,54.25-7.85,6.84-17.68,8.91-27.95,7.6-10.06-1.28-18.68-5.53-24.63-14.52l-17.11,11a86,86,0,0,1,8,36.79c.06,12.75-3.06,24.83-8.16,36.66l16.74,9.75c8.92-8.5,18.77-15,31.49-14.22,8.85.57,16.74,4.4,23.41,10.31,13.75,12.17,16.66,33.68,7.41,49.72-8.33,14.45-28.56,21-37.23,18.89-28.23-6.81-38.41-29.18-31.48-53.65l-16.75-9.78c-14.63,22.09-35.47,33.84-61.53,36.61v20.42c23.52,5.71,33.91,27.35,31.26,44.29-3.24,20.79-18.79,34.36-38.87,34-19.07-.35-34.45-14.93-36.88-34.94-2.26-18.66,10.62-38.77,31.36-43.2V344.24C198.16,341.44,177.24,329.84,162.56,307.6Zm67.72,24.07c38.16.58,69.9-32.17,70.21-71.2.33-41.86-32.14-72.76-69-73.27-37.77-.53-70.31,30.74-70.83,71.44C160.17,298.32,191.66,331.77,230.28,331.67Zm-95.06,0c.05-14.59-11-26.13-25.17-26.25-14.36-.12-25.65,11.39-25.66,26.16,0,14.59,11.09,26.19,25.17,26.27C123.91,358,135.18,346.48,135.22,331.7Zm216.41-26.25c-14.22-.13-25.48,11.15-25.69,25.73-.21,14.78,10.91,26.6,25.13,26.7s25.65-11.37,25.7-26.14C376.83,317.15,365.78,305.59,351.63,305.45ZM230.44,377.76c-14.21.05-25.23,11.43-25.28,26.1,0,14.47,11.51,26.38,25.56,26.33,13.78-.05,25.3-12,25.28-26.21C256,389.13,244.84,377.72,230.44,377.76ZM376.77,187.33c.11-14-11.61-26.08-25-26.56-13.94-.5-26,13.61-25.84,26.21.13,14.65,10.91,26.14,25.08,26.29C365.42,213.43,376.67,202.12,376.77,187.33Zm-292.38.26c.22,14.59,11.42,25.81,25.65,25.68s25.21-11.7,25.22-26.56c0-12.51-12-26.36-26.1-26C95.82,161,83.69,174.89,84.39,187.59ZM256,115.29c0-14.53-11.18-26-25.42-26s-25,11.31-25.49,25.55c-.47,14.47,13.42,26.81,25.3,27S256.65,129.53,256,115.29Z"/><path class="cls-1" d="M224.3,268.47c4.73-4.07,11.12-9.18,17-14.78,5.45-5.15,10.34-10.88,15.6-16.24,3.19-3.25,6.66-3.46,9.46-.88s2.79,6.86.11,10c-.25.3-.54.57-.82.86q-17.58,18-35.18,35.95c-4.9,5-7.69,5-12.62-.07q-11.49-11.73-22.83-23.62c-3.09-3.22-3.2-6.79-.47-9.48s6.15-2.42,9.5.55C211.22,257.08,218.4,263.3,224.3,268.47Z"/></svg>