<svg id="contract" xmlns="http://www.w3.org/2000/svg" viewBox="0 0 458.82 516.71"><defs><style>.cls-1{fill:#424242;}</style></defs><title>contract</title><path class="cls-1" d="M259.25,80.37c6.71,1.9,11.49,6.48,16.24,11.29q21.61,21.9,43.5,43.51a24.67,24.67,0,0,1,7.75,18.61c-.13,28.27-.05,56.54-.06,84.81a14.75,14.75,0,0,1-.15,3.46,4.93,4.93,0,0,1-5.27,4.11,4.86,4.86,0,0,1-4.94-4.48,21.1,21.1,0,0,1-.08-3.47q0-41.53,0-83.07V150.6c-1.42-.08-2.63-.22-3.85-.22-9.15,0-18.3,0-27.46,0-16.8-.08-28.13-11.36-28.24-28.13-.07-10.3,0-20.59,0-31.41H99.77c-11.36,0-17.91,6.52-17.91,17.87q0,136.77,0,273.55c0,11.11,6.59,17.75,17.69,17.78,17,0,34.06,0,51.09.05a9.91,9.91,0,0,1,5,1,5,5,0,0,1-.83,8.76,9.74,9.74,0,0,1-3.72.62c-17.5,0-35,.13-52.49,0-13.46-.11-24-8.68-26.64-21.49a37.81,37.81,0,0,1-.52-7.6q0-135.92,0-271.81c0-15.59,6.74-24.44,21.86-28.79.2-.05.35-.28.52-.42Zm8.27,18.89c0,9.13-.43,18.25.14,27.31.43,6.8,6.5,12.53,13.42,12.93,8.75.5,17.55.17,26.34.17.11,0,.22-.33.2-.31Z"/><path class="cls-1" d="M304.37,407.22c-2.49,13.41-14.31,19.46-26.35,14.14-.16.13-.43.24-.47.41-3.65,13.44-15.6,18.4-27.54,11.4-3.69-2.16-7.36-4.35-11-6.51-9.55,9.33-23.45,8.12-30.33-4.94-5,1.6-10.13,1.76-15-.86a17.74,17.74,0,0,1-9.08-12.24c-10.43.34-17.28-4.31-20.14-14.39C147.5,396,135.86,376,152,359.23c-1.1,0-2.38-.37-3.26.06-7.55,3.74-14.74,3-21.78-1.33-2.94-1.83-6-3.48-9-5.32-5.89-3.68-7.71-10-4.22-15.92q22-37.39,44.22-74.68c3.5-5.89,9.95-7.45,15.95-4.1,3.74,2.08,7.43,4.27,11,6.57a19.55,19.55,0,0,1,9.55,17.79c-.05,2.32.61,3.55,2.62,4.59A16.76,16.76,0,0,0,211.21,288c3.15-1.15,6.29-2.32,9.37-3.65,8.94-3.84,17.61-3.34,25.92,1.68a7.43,7.43,0,0,0,6.53.72c4.2-1.28,8.56-2,12.74-3.37C273.14,281,280.12,281.9,287,285a46.26,46.26,0,0,0,9.09,3.35c2.95.64,6.08.41,9.52.57-.22-1.59-.32-2.34-.43-3.09-1.44-9.5,2.14-17.09,10.39-22,3.28-2,6.52-4,9.85-5.86,6-3.37,12.44-1.86,16,4q22.24,37.28,44.25,74.67c3.41,5.78,1.83,12.37-3.93,15.69a162.78,162.78,0,0,1-17.9,8.88,10.8,10.8,0,0,1-7.14-.06c-4.55-1.61-7.41.91-10.66,3.16,4.73,7.16,5.51,14.45.42,21.47s-12,8.57-20.38,6.33c-1.11,5-3.27,9.37-7.62,12.32A18.14,18.14,0,0,1,304.37,407.22Zm-64.81-113c-4.15-2.12-7.86-2.57-11.67-1.31-3.18,1.06-6.33,2.24-9.43,3.5-5.1,2.07-10.34,3.85-15.86,2.85-4.25-.76-8.35-2.37-12.84-3.7-10.65,18-21.54,36.37-32.42,54.75l.51,1a20.67,20.67,0,0,0,4.21-.67,17.66,17.66,0,0,1,20.42,5.21c.56.67,1.16,1.3,1.73,1.95,9.89-8.68,25.63-5.72,30.06,9.62,6.39-.53,11.87,1.39,16,6.51s4.58,10.89,3,17c6.1,1.65,10.53,4.9,12.92,10.55S247.7,412.6,245,418c3.72,2.21,7.16,4.33,10.66,6.34,4.35,2.5,8.44,1.72,10.6-1.93s.86-7.67-3.36-10.26c-3.15-1.94-6.45-3.66-9.5-5.76a4.71,4.71,0,0,1-1.48-6.74c1.46-2.53,3.81-3.28,6.57-2.17a21.48,21.48,0,0,1,2.74,1.5c7,4.13,13.92,8.3,20.92,12.38,4.33,2.52,8.43,1.68,10.58-2s.76-7.62-3.47-10.22c-.69-.43-1.4-.82-2.09-1.24q-11.06-6.54-22.12-13.09c-2.34-1.38-3.88-3.49-2.84-6a7.68,7.68,0,0,1,4.26-3.85c1.31-.43,3.33.58,4.77,1.41,10.2,5.94,20.34,12,30.5,18,6.17,3.65,10.28,3.46,12.74-.61s.83-7.84-5.36-11.5l-24.8-14.69c-2.39-1.42-4.84-2.75-7.15-4.28-2.76-1.81-3.45-4.7-1.91-7.21s4.33-3.19,7.29-1.7c.82.41,1.6.92,2.4,1.39q20.76,12.3,41.54,24.59a20.69,20.69,0,0,0,3.69,1.88,6.92,6.92,0,0,0,9.15-6.58c0-3.49-2.08-5.41-4.82-7q-33-19.53-66-39.11c-.45-.27-.95-.47-1.55-.76-.37.76-.61,1.27-.86,1.77s-.49,1.05-.78,1.55c-4.11,7.1-10.14,11.31-18.4,12-8,.66-13.1-4-13.2-12-.06-5.33.11-10.67,0-16C233.39,308.26,233.92,300.73,239.56,294.26Zm5.06,39.88c2.53-.87,5-1.33,7.11-2.53,4-2.33,5.52-6.28,5.91-10.81.48-5.61,4-7.37,8.88-4.61,1.32.73,2.6,1.53,3.89,2.29q31.68,18.76,63.38,37.47c1.13.67,2.87,1.26,3.93.85,2.09-.79,3.9-2.32,6-3.65-2.52-4.28-4.92-8.35-7.33-12.42-3.24-5.49-6.69-10.86-9.59-16.51a7.33,7.33,0,0,1,.15-6c.7-1.24,3.38-2.12,5-1.88s3.14,1.87,4,3.32c5.27,8.58,10.31,17.31,15.49,25.95,2.93,4.88,7.68,7.07,12.34,5s8.81-4.91,13.49-7.58l-45.42-76.66c-3.93,2.33-7.43,4.33-10.87,6.44-5.82,3.57-7.23,9-3.89,14.86,1.48,2.61,3.08,5.17,4.61,7.76,2.51,4.26,2.3,7.35-.6,9.12s-5.83.55-8.34-3.64l-2-3.39C302.13,301,294,299.57,286,296a33.3,33.3,0,0,0-6.13-2.4c-2.54-.58-5.33-1.29-7.79-.82-6.24,1.19-12.4,2.88-18.52,4.62-4.69,1.32-8.46,4.49-8.78,9.31C244.2,315.52,244.62,324.42,244.62,334.14Zm-77-67.75c-.87,1.4-1.55,2.45-2.19,3.53l-20,33.75c-7.2,12.15-14.36,24.32-21.64,36.42-1.31,2.17-1.24,3.4,1.17,4.57s4.8,2.8,7.19,4.2c7.06,4.14,12.19,2.88,16.33-4.09q10.65-17.92,21.23-35.87c4.25-7.17,8.58-14.29,12.73-21.52,3.22-5.63,1.82-11-3.62-14.38C175.28,270.8,171.65,268.76,167.61,266.39Zm15.29,131.7c.89-.53,3.12-1.17,4.25-2.65q8-10.49,15.39-21.38c2.16-3.17,1.12-7-1.89-9.22s-7.07-2-9.35,1.06c-5.35,7.1-10.64,14.28-15.5,21.72C172.85,392.13,176.46,398,182.9,398.09Zm40.82-12.53c-.34-3.83-1.8-6.24-4.85-7.27-3.33-1.13-6.17-.09-8.23,2.74-4.75,6.55-9.49,13.1-14.14,19.72-2.64,3.75-2,8.08,1.33,10.39s7.49,1.45,10.25-2.33q7-9.51,13.72-19.16A23,23,0,0,0,223.72,385.56Zm-60.71-2c.68-.35,2.63-.74,3.6-1.93a112.44,112.44,0,0,0,8.46-11.78c1.86-3,.57-6.85-2.35-8.82a6.73,6.73,0,0,0-9.09,1.14,96.89,96.89,0,0,0-7.86,11C152.88,377.94,156.47,383.71,163,383.58Zm74.05,24.18A6.32,6.32,0,0,0,232.9,402c-2.91-1.23-5.82-.89-7.91,1.59a62.56,62.56,0,0,0-6,8.44c-1.62,2.76-1.1,5.63,1.12,8a6.63,6.63,0,0,0,7.61,1.74C230.76,420.58,237,411.82,237.06,407.76Z"/><path class="cls-1" d="M199,218.79H116.32a25,25,0,0,1-3.12-.06,5.15,5.15,0,0,1-.93-10.06,11.83,11.83,0,0,1,3.43-.32q83.24,0,166.47,0a12.07,12.07,0,0,1,3.76.41,5.15,5.15,0,0,1-1.05,10,25.1,25.1,0,0,1-3.47.07Z"/><path class="cls-1" d="M199,186.7H116.62a27,27,0,0,1-3.12-.06,5.34,5.34,0,0,1-5-5.3,5.22,5.22,0,0,1,5.15-5.07c1-.07,2.09,0,3.13,0H281.18c1.05,0,2.09-.05,3.13,0,3.08.23,5,2.2,5.08,5.07a5.19,5.19,0,0,1-4.91,5.3,27.21,27.21,0,0,1-3.13.06Z"/><path class="cls-1" d="M156.33,139.86h39.58a26.86,26.86,0,0,1,3.81.16,4.79,4.79,0,0,1,4.46,4.93,4.85,4.85,0,0,1-4.2,5.18,14.53,14.53,0,0,1-3.1.22q-40.44,0-80.9,0a15.18,15.18,0,0,1-3.44-.28,5.1,5.1,0,0,1,.4-10,25.46,25.46,0,0,1,3.81-.18Z"/></svg>