<svg id="globe" xmlns="http://www.w3.org/2000/svg" viewBox="0 0 458.82 516.71"><defs><style>.cls-1{fill:#424242;}</style></defs><title>countries</title><path class="cls-1" d="M423.2,247.61v22.6c-.24,1.33-.5,2.66-.7,4-1.2,8.3-1.89,16.71-3.67,24.89-10.07,46.3-33.85,84.25-71.56,112.82-46.92,35.55-99.77,47.34-157.38,35.33-46.12-9.62-83.62-33.79-112.3-71.08-31-40.26-43.85-86.1-39-136.56,3.92-40.88,19.79-77,47-107.79C115.49,98,152.69,77,197.15,69.09c7.26-1.3,14.62-2,21.93-3h22.59a18.64,18.64,0,0,0,2.91.62c30.16,2.13,58.38,10.76,84.13,26.54,50,30.61,80.69,74.75,91.49,132.49C421.55,233,422.21,240.31,423.2,247.61Zm-181-148.77c-1.72-.12-3.17-.25-4.62-.3-43.14-1.68-81.08,11.7-113.33,40.26S74.29,203.51,70.56,246.43c-.11,1.24.9,2.87,1.86,3.87,4.46,4.69,9.62,8.83,13.52,13.93,4.55,5.94,7.73,12.91,12.15,19,1.73,2.37,5,4.09,7.94,5,4.28,1.3,8.9,1.43,13.32,2.33,11.19,2.27,16.27,10.06,14.16,21.27-1.38,7.39-5.56,13.35-9.66,19.36-3.14,4.61-5.75,9.44-5.79,15.23-.06,8.41-.13,16.82,0,25.23a4.68,4.68,0,0,0,1.43,3.19c7.45,6.13,14.58,12.8,22.62,18.06,35.44,23.18,74.3,31.73,116,24.15,51.4-9.32,89.37-37.93,114.41-83.47,14.5-26.36,20.15-55,18.09-85-.74-10.63-3.05-21.15-4.75-32.42-4.27,3.06-7.38,5.59-10.77,7.65-8.64,5.25-15.61,7.05-24.43-1.49-2-1.93-4.48-3.33-6.73-5a16.09,16.09,0,0,0,2.29,6.51c6.22,10.66,14.77,19.28,24,27.28,5.82,5,6.14,8.81,1.39,14.77-4.3,5.39-8.84,10.65-12.55,16.43-3.21,5-6.88,10.43-7.72,16.06-1.21,8.09-4.47,14.18-10.55,19.15A15.08,15.08,0,0,0,335,329.62a30.71,30.71,0,0,1-10,22.75c-10.36,9.71-23.05,14.95-36.45,18.69a7.51,7.51,0,0,1-8.58-3.34c-5-7.63-10.47-15.08-14.33-23.27-4.38-9.29-5-19.51,1.23-28.38,4.28-6.06,4.12-11.64,1.79-18-2.14-5.86-4.36-11.78-5.61-17.86-1.3-6.32-.88-7.23-7.37-8.31-12.09-2-24.31-3.17-36.47-4.8-6.92-.92-14.06-1.24-20.65-3.3-8.75-2.73-14.95-8.92-16.11-18.51a171.66,171.66,0,0,1-1-20.67c0-14.95,7.08-26.07,19.34-34.09,14.42-9.43,30.66-11.88,47.46-11.86A49.59,49.59,0,0,1,270,183.74a19.23,19.23,0,0,0,7.53,2.1q18.42.56,36.86.54a25.65,25.65,0,0,0,8.09-1.54c4.72-1.6,5.9-6.53,2.54-10.25a16.36,16.36,0,0,0-4.17-3.15c-9.08-5.06-19.13-6.65-29.24-7.71C279.84,162.5,268,161,256.47,164.8c-6.4,2.12-12.36,5.52-18.74,7.71-6.82,2.33-13.86,4.09-20.88,5.76-5.18,1.23-8.91-1.55-11-5.9a26,26,0,0,1-2.62-10c-.34-8.09,3.68-14.67,8.55-20.74,6.8-8.47,15.56-14.45,25-19.61,2.8-1.52,5.33-3.56,8-5.37C237.09,106.19,237,105.42,242.19,98.84Z"/></svg>