<svg id="cpu" xmlns="http://www.w3.org/2000/svg" viewBox="0 0 458.82 516.71"><defs><style>.cls-1{fill:#424242;}</style></defs><title>cpu</title><path class="cls-1" d="M98.93,343H83.81c-7.24,0-14.49.09-21.74,0A12,12,0,1,1,62.19,319c11.75-.1,23.49,0,35.54,0V271H93.86c-10.25,0-20.5,0-30.74,0-7.64,0-13.06-5-13.08-11.95s5.35-12,13-12c11.49,0,23,0,34.73,0V199H92.28c-9.87,0-19.74.05-29.62,0-7.28,0-12.64-5.21-12.62-12S55.38,175,62.72,175c10.75-.06,21.5,0,32.25,0h4.21a60.83,60.83,0,0,1,17.09-30.84,56.83,56.83,0,0,1,24-14.11c2.58-.75,3.23-1.94,3.2-4.45-.12-11.37-.19-22.75,0-34.12.16-9.19,8.52-15,16.5-11.54,5.12,2.21,7.46,6.38,7.45,11.93,0,10.25,0,20.49,0,30.74v4.22H218v-4c0-10.25,0-20.5,0-30.75,0-7.66,5-13,11.93-13.07S242,84.36,242,92c0,11.49,0,23,0,34.74h45.35V109.11c0-5.75-.08-11.5,0-17.24.14-7.73,5.13-13,12.13-12.89,6.79.08,11.74,5.3,11.81,12.82.11,11,.06,22,0,33,0,1.89.12,3.17,2.52,3.71,24.43,5.56,39.79,20.66,46.54,44.68l.5,1.79H372.8c8.37,0,16.75-.08,25.12,0a12,12,0,1,1,0,23.94c-10.5.11-21,0-31.5,0h-4.2v48h33.55c8.67,0,14.19,4.62,14.24,11.91S404.54,271,396,271H362.32v48h3.92c10.38,0,20.75,0,31.12,0,7.3,0,12.66,5.18,12.65,12s-5.35,11.93-12.66,12c-10.75.06-21.5,0-32.24,0h-4.22c-2.69,11.38-7.72,21.26-15.77,29.5a58,58,0,0,1-30.7,16.87c-2.64.53-3.1,1.68-3.08,4,.08,11.12.19,22.25,0,33.37-.18,9.12-8.84,14.83-16.69,11.2-5.07-2.34-7.27-6.54-7.24-12.07.05-10.12,0-20.25,0-30.37V391.2H242V424c0,9.39-4.41,14.94-11.91,15S218,433.44,218,424.14V391.26H167.38v9.6c0,8.62.09,17.25-.06,25.87-.11,6.11-3.54,10.39-9,11.85a11.42,11.42,0,0,1-13.1-5.6,18.58,18.58,0,0,1-1.72-7.89c-.19-11-.1-22-.06-33,0-1.86-.1-3.23-2.35-4-22.05-7-35.8-21.85-41.6-44.18A7,7,0,0,0,98.93,343Zm131.12,24q35,0,70.1,0C322.67,367,338,351.6,338,329.06q0-70.11,0-140.21c0-22.54-15.36-37.87-37.9-37.87q-70.11,0-140.21,0c-22.52,0-37.87,15.36-37.88,37.9q0,70.11,0,140.21c0,22.5,15.4,37.86,37.91,37.88Z"/><path class="cls-1" d="M146,258.67q0-23.06,0-46.11c0-22.05,15.46-37.56,37.44-37.58q46.49-.06,93,0c22.08,0,37.55,15.41,37.58,37.43q.06,46.68,0,93.34c0,21.59-15.55,37.17-37.06,37.21q-46.86.07-93.71,0c-21.56,0-37.14-15.57-37.21-37.06C146,290.16,146,274.41,146,258.67Zm24,.1q0,23.44,0,46.87c0,8.43,4.84,13.32,13.21,13.32q46.68,0,93.36,0c8.66,0,13.41-4.78,13.41-13.5q0-46.48,0-93c0-8.68-4.78-13.49-13.41-13.49q-46.5,0-93,0c-8.92,0-13.58,4.69-13.59,13.67Q170,235.72,170,258.77Z"/></svg>