<svg id="Farms" xmlns="http://www.w3.org/2000/svg" viewBox="0 0 458.82 516.71"><defs><style>.cls-1{fill:#424242;}</style></defs><title>farms</title><path class="cls-1" d="M279.45,52.4c.84.33,1.65.73,2.51,1,10.43,3.27,17.32,10.08,20.1,20.68,4,15.19,7.88,30.41,11.53,45.68.86,3.59,2.36,4.87,6,5.37a58.29,58.29,0,0,1,15.1,3.91c9.34,4,10.78,13.72,2.61,19.82-5,3.75-11.31,5.94-17.23,8.35-2.49,1-3.84,1.92-3.46,4.76a28.72,28.72,0,0,1,0,5.64c-.34,5,.4,9.34,3.81,13.69,5,6.37,4.52,26.94.13,33.82-2.89,4.54-7.07,7.15-12.28,8.46a4.56,4.56,0,0,0-2.84,2.92c-3.11,20.47-12.9,36.78-29.8,48.81-.89.64-2,1.79-2,2.72-.06,5.1-.44,10.32.5,15.26,1.15,6.08,4.64,10.31,11.37,12.09,22.84,6,45.63,12.27,68.24,19.09a108.68,108.68,0,0,1,22.7,10.18c18,10.4,27.92,26.23,28.43,47.1.52,21.37.44,42.76.13,64.13-.17,11.84-9.21,19.68-21.59,19.68q-109.53,0-219,0H77.7c-14.25,0-22.42-8.25-22.44-22.6,0-6.45,0-12.9,0-19.36,0-6.19,2-9,6.19-8.95s5.91,2.66,5.92,8.7c0,6.72,0,13.45,0,20.17,0,6.91,3,9.92,9.79,9.93,10.49,0,21,0,31.46-.09.24,0,.48-.19,1-.44.32-7.46.68-15.08,1-22.71.39-10.75,1-21.5,1-32.25,0-15,5.83-25.69,20.73-30.29V329.63c-19.77,5.52-40,9.28-54.49,25.31-7.72,8.52-10.27,18.95-10.49,30.14,0,2.42.07,4.85-.07,7.26-.21,3.54-2.62,5.94-5.83,6a6,6,0,0,1-6.12-5.78c-1-19.63,3.12-37.4,18.81-50.94,11-9.52,24-15.08,37.87-19,20.93-5.88,41.91-11.59,62.87-17.38,7.11-2,11.13-6.59,11.76-14a92.94,92.94,0,0,0,.11-12.49,5.3,5.3,0,0,0-2.08-3.48C167.84,263.23,158,246.94,155,226.46a4.55,4.55,0,0,0-2.88-2.89c-9.17-2.35-14.86-9-15.21-18.4-.17-4.7-.56-9.49.13-14.1a29.19,29.19,0,0,1,4.16-11.46c1.74-2.63,2.79-4.91,2.65-8-.19-4.16,1.31-9.19-.56-12.24-1.65-2.7-7.05-2.93-10.53-4.76-3.89-2-8-4.11-11.09-7.1-6-5.72-4.78-14.19,2.69-17.71a63.13,63.13,0,0,1,16.52-4.66c3.62-.6,5.18-1.77,6-5.38,3.49-14.76,7.35-29.43,11-44.14,3-11.87,10.16-19.57,22.17-22.55.35-.09.62-.44.93-.67Zm59,400.84c-1.31-19.83-2.5-39.28-3.91-58.72-.77-10.58-6.09-15.26-16.78-15.26H140.65c-10.88,0-16.3,5.2-16.74,16.2q-.93,23.37-1.71,46.76c-.13,3.6,0,7.2,0,11ZM177.16,164.38c0,6.69-.06,13,0,19.26,0,3.82-1.07,6.93-4.72,8.59s-6.62.75-9.7-1.63a25.64,25.64,0,0,0-7.44-3.79c-4.23-1.4-6.06-.09-6.3,4.43s-.22,9.15,0,13.71c.2,4.31,2.64,6.45,7,6.67,1.08.06,2.16,0,3.23,0,5,.24,7,2.25,7.21,7.26,1.69,41.58,41.87,63.8,74.06,58.3,23.78-4.06,52.16-22.67,53.5-59.23.14-3.81,2.34-5.89,6.08-6.26,1.74-.17,3.5,0,5.24-.17,3.22-.24,5.59-2,5.8-5.16a135.24,135.24,0,0,0,0-16.48c-.16-3.17-2.42-4.54-5.41-3.31a51.21,51.21,0,0,0-8.82,4.58c-4,2.64-8.94,2.63-11.54-1a12.86,12.86,0,0,1-2-6.68c-.26-6.25-.09-12.51-.09-19.09A515.08,515.08,0,0,1,177.16,164.38Zm-19-40.19c6,0,11.65-.07,17.26,0,4.12.08,6.76,2.94,6.38,6.62-.34,3.28-2.86,5.39-6.84,5.43-8.87.09-17.76-.23-26.61.2-5.72.28-11.4,1.59-17.09,2.44l0,1.62c2.9,1.3,5.69,3.12,8.73,3.79,12.95,2.87,25.86,6.33,39,7.87a429,429,0,0,0,108.18-.71c12-1.64,23.82-5.12,35.66-8,2.29-.55,4.34-2.12,6.5-3.21l-.18-1.76c-7-.75-14-2.1-21-2.15-33.61-.22-67.22-.09-100.83-.11a17.88,17.88,0,0,1-4.4-.24c-3.11-.79-4.9-3-4.69-6.17a5.68,5.68,0,0,1,5.34-5.61,27.28,27.28,0,0,1,3.62-.07h94.74a6.52,6.52,0,0,0,.07-1.51c-3.85-15.22-7.58-30.48-11.64-45.65-2.18-8.18-8.33-12.5-17.08-12.51q-42.94-.06-85.9,0c-9.23,0-15.19,4.69-17.53,13.58-1.33,5.06-2.6,10.14-3.87,15.22C163.36,103.45,160.83,113.58,158.16,124.19ZM350.61,453.47c11.23,0,22,0,32.72,0,6.61,0,9.72-3,9.74-9.57.05-19.63.1-39.27,0-58.9-.07-11.34-2.87-21.87-10.81-30.4a57.58,57.58,0,0,0-9.1-7.91c-13.5-9.42-29.27-12.82-45.2-17,0,12.64-.06,24.73.11,36.81,0,1,1.49,2.32,2.59,2.84,8.4,3.91,13.71,10.32,15.49,19.35.83,4.19.83,8.56,1.11,12.85C348.37,418.66,349.46,435.81,350.61,453.47ZM290.1,367c0-15.56,0-30.73-.05-45.91,0-.77-.56-2.05-1.12-2.22-3.34-1-6.27-2.35-10.11.2-19.29,12.77-40.52,17.27-63.44,13.46a83.63,83.63,0,0,1-34.79-14.09c-3.48-2.45-6.18-.23-9,.56-.76.21-1.14,3-1.15,4.53-.09,13.05-.05,26.09-.05,39.14V367Zm-28.94-83.32a77.23,77.23,0,0,1-61.54.17c-.71,5.05-.8,9.82-2.16,14.2s-4,8.36-6.08,12.58c22.41,15.38,57.84,14.23,78.13-.44C263.18,301.7,262.63,300,261.16,283.71ZM144.94,326.16v40.7h13v-44.3ZM315.66,367V326.17l-13.15-3.6V367ZM155.87,161.16c0,4.12-.12,7.6.09,11.06a3.52,3.52,0,0,0,1.74,2.55,69.84,69.84,0,0,0,7.33,2.29c0-4.4.09-8.52-.09-12.62a3,3,0,0,0-1.87-2C160.9,161.82,158.62,161.61,155.87,161.16Zm148.53.08c-2.6.4-4.76.58-6.81,1.12-.82.21-2,1.2-2,1.88-.19,4.19-.09,8.4-.09,12.91l8.95-2.93Z"/><path class="cls-1" d="M229.42,408.28h76.66a24.24,24.24,0,0,1,3.62.07c3.36.51,5.38,2.45,5.41,5.93s-2,5.44-5.33,6a20.79,20.79,0,0,1-3.62.09H152.44a18.54,18.54,0,0,1-4-.17c-3.11-.74-4.91-2.79-4.82-6s2-5.21,5.14-5.79a20.76,20.76,0,0,1,3.62-.09Z"/></svg>