<svg id="gateways" xmlns="http://www.w3.org/2000/svg" viewBox="0 0 458.82 516.71"><defs><style>.cls-1{fill:#424242;}</style></defs><title>gateways</title><path class="cls-1" d="M109.59,192.35V360.08H349.41V261.21a26,26,0,0,1,.11-3.75,6,6,0,0,1,11.76-.09,16.33,16.33,0,0,1,.13,3.36V363.85c0,6.67-1.8,8.49-8.39,8.49q-123.55,0-247.12,0c-6.68,0-8.49-1.78-8.49-8.38V188.84c0-6.69,1.77-8.49,8.37-8.49H244.9a17.17,17.17,0,0,1,3.37.11c3.21.66,5.11,2.68,5.06,6,0,3.14-1.9,5.1-4.94,5.74a20.07,20.07,0,0,1-4.11.14H109.59Z"/><path class="cls-1" d="M62.86,396.35a17.31,17.31,0,0,0,15.3,11.95c1,.06,2,0,3,0q148.31,0,296.59,0c7.82,0,13.78-2.93,17.61-9.85a20.25,20.25,0,0,0,.81-2.18H274.83a35.83,35.83,0,0,1-3.74,0,6,6,0,0,1-.1-11.89,23,23,0,0,1,2.63,0q63.74,0,127.48,0c6.71,0,9,2.62,8.15,9.31-1.94,15.35-14.37,26.64-29.91,26.65q-150,.09-300,0a30,30,0,0,1-29.83-26.74c-.8-6.67,1.48-9.22,8.26-9.22q63.56,0,127.11,0a22.25,22.25,0,0,1,3.37.1,5.87,5.87,0,0,1,5.07,6,5.76,5.76,0,0,1-5,5.72,20.1,20.1,0,0,1-4.11.14H62.86Z"/><path class="cls-1" d="M73.41,269.6v-93c0-13.12,7.07-20.25,20.07-20.25H244.6c.88,0,1.75,0,2.63,0,3.54.25,6,2.68,6.08,5.89a6.09,6.09,0,0,1-5.92,6.05c-1.12.09-2.25,0-3.38,0H94c-6.92,0-8.61,1.68-8.61,8.61V361.83c0,.87,0,1.75,0,2.62,0,5.06-2.17,7.86-6,7.86s-6-2.76-6-7.84Q73.41,317,73.41,269.6Z"/><path class="cls-1" d="M265.2,168.17c.32-54.43,58.55-88.93,106.57-63,4.48,2.41,5.92,5.55,4.12,9s-5.25,4-9.71,1.64c-31.11-16.32-68.49-4.4-82.91,27.05-10.55,23-7.74,45.18,8.73,64.41s38,25.73,62.29,18.52,38.57-24.21,42.33-49.32c1-6.41.07-13.16-.47-19.71-.37-4.56,1-7.7,4.71-8.41,3.46-.66,6.23,1.68,7.11,6C416,194,389.55,232.33,349.22,239.4c-38.81,6.79-76.88-20.58-82.92-59.68C265.72,175.9,265.56,172,265.2,168.17Z"/><path class="cls-1" d="M145.22,240.92c.87-4.76-2-11.45,6-12.46,4.19-.54,5.46,2.13,6.32,11.41,5.28,2.64,10.38,4.89,15.14,7.7,2.76,1.63,3.42,4.6,1.8,7.58a5.56,5.56,0,0,1-6.64,3c-1.16-.29-2.12-1.36-3.29-1.72-4.58-1.41-9.14-3.37-13.84-3.83-5.51-.55-9.86,3.46-11.11,8.71s.55,9.29,5.79,12.1c2.83,1.53,6,2.39,9,3.72,4.65,2.1,9.49,3.93,13.79,6.61,9.21,5.73,14.07,14.17,13,25.2-1.16,11.9-7.32,20.48-18.45,25.23-1.6.68-3.3,1.14-5.32,1.82,0,2,.08,4.07,0,6.16-.18,3.77-2.71,6.3-6.11,6.21s-5.64-2.51-5.83-6.1c-.1-2,0-4,0-6.22a37.63,37.63,0,0,1-19.88-10.61,29.48,29.48,0,0,1-2.72-3.09c-2.15-2.92-1.9-6.27.55-8.42,2.61-2.27,6.17-2.09,8.63.84a25.78,25.78,0,0,0,15.72,9.39c13.11,2.24,24.4-9.19,21.07-21.3-1.44-5.25-5.19-8.53-9.8-10.72-4.83-2.28-10-4-14.9-6-8.25-3.41-14.7-8.57-16.45-17.92a23.65,23.65,0,0,1,14.41-26.08C143.09,241.66,144.16,241.31,145.22,240.92Z"/><path class="cls-1" d="M337.71,177.22l42.58-46.44q8.86-9.66,17.72-19.33c3.24-3.51,6.64-4,9.44-1.55s2.63,6.12-.51,9.54q-31.86,34.82-63.75,69.6c-4.2,4.57-7.51,4.47-11.46-.26q-13.94-16.68-27.82-33.37c-3.1-3.72-3.19-7.08-.32-9.56s6.43-1.87,9.63,2C321.29,157.49,329.35,167.17,337.71,177.22Z"/><path class="cls-1" d="M385.41,309.34v54.37a18,18,0,0,1-.1,3.37c-.6,3.23-2.59,5.19-5.9,5.18s-5.31-1.95-5.9-5.18a18,18,0,0,1-.1-3.37V255a18.88,18.88,0,0,1,.1-3.37c.59-3.24,2.59-5.18,5.9-5.18s5.3,2,5.9,5.18a18,18,0,0,1,.1,3.37Z"/><path class="cls-1" d="M265.41,264.35q25.68,0,51.37,0a18.88,18.88,0,0,1,3.37.09c3.23.6,5.18,2.59,5.18,5.9s-2,5.3-5.19,5.91a18.8,18.8,0,0,1-3.36.09q-51.37,0-102.75,0a18.91,18.91,0,0,1-3.37-.09c-3.22-.61-5.17-2.59-5.17-5.91s1.95-5.31,5.18-5.9a18.88,18.88,0,0,1,3.37-.09Q239.72,264.33,265.41,264.35Z"/><path class="cls-1" d="M265.41,288.35q25.69,0,51.37,0a18.88,18.88,0,0,1,3.37.09c3.23.6,5.18,2.59,5.18,5.9s-2,5.3-5.19,5.91a18.88,18.88,0,0,1-3.37.09q-51.36,0-102.74,0a18.91,18.91,0,0,1-3.37-.09c-3.22-.61-5.17-2.59-5.17-5.91s1.95-5.31,5.18-5.9a18.88,18.88,0,0,1,3.37-.09Q239.72,288.33,265.41,288.35Z"/><path class="cls-1" d="M241.73,324.34c-9.62,0-19.25,0-28.87,0-4.71,0-7.45-2.3-7.42-6s2.76-5.93,7.52-5.94q28.5,0,57,0c4.72,0,7.46,2.29,7.42,6s-2.78,5.94-7.53,5.95C260.48,324.36,251.1,324.34,241.73,324.34Z"/></svg>