<svg id="hdd" xmlns="http://www.w3.org/2000/svg" viewBox="0 0 458.82 516.71"><defs><style>.cls-1{fill:#424242;}</style></defs><title>hdd</title><path class="cls-1" d="M86,259V109.4c0-16.68,9.85-26.49,26.62-26.49h234.7c17,0,26.68,9.78,26.68,26.81V408.16c0,17.2-9.71,26.87-27,26.87q-117.34,0-234.7,0c-13.88,0-23.61-7.53-25.92-20.1a36.18,36.18,0,0,1-.37-6.34Q86,333.79,86,259Zm15.94-.12V407c0,1.25-.06,2.5,0,3.75.37,5.11,3.31,7.94,8.42,8.16.87,0,1.75,0,2.62,0H347c1.13,0,2.25,0,3.37-.07,4.06-.3,6.75-2.64,7.45-6.63a28.13,28.13,0,0,0,.25-4.86q0-148.29,0-296.58c0-9.54-2.18-11.74-11.64-11.74H113.6c-1.25,0-2.5,0-3.74,0a7.79,7.79,0,0,0-7.76,7.2,35.34,35.34,0,0,0-.13,4.49Z"/><path class="cls-1" d="M334.07,219.17c-.22,57.4-47,103.93-104.25,103.73-57.43-.2-104.1-47-103.84-104.15.27-57.55,47.18-104.08,104.63-103.77C287.74,115.28,334.29,162.17,334.07,219.17ZM230.16,130.91A88,88,0,1,0,318,218.71C317.85,170.26,278.41,130.81,230.16,130.91Z"/><path class="cls-1" d="M262.09,370.73c0-7.49,0-15,0-22.48,0-6.35,2.82-9.13,9.13-9.2,4.87-.06,9.75-.09,14.62,0,12.95.25,22.78,8.81,23.9,21.67a115.21,115.21,0,0,1-.25,22c-1.21,11.13-11,19.69-22.25,20.12-5.62.21-11.25.14-16.86,0-5.08-.1-8.18-3.15-8.26-8.22-.12-8,0-16,0-24Zm16.06,16.19c3.12,0,5.86.22,8.55-.06,4.23-.44,7-3.23,7.14-7.32.2-5.73.19-11.47,0-17.21a7.29,7.29,0,0,0-6.45-7.16,83.56,83.56,0,0,0-9.24-.07Z"/><path class="cls-1" d="M206,370.77c0-7.5,0-15,0-22.49,0-6.28,2.89-9.17,9.17-9.23,5.24-.05,10.5-.13,15.74.06A23.74,23.74,0,0,1,254,362.56q.18,8.43,0,16.86a23.94,23.94,0,0,1-23.45,23.52c-5.25.12-10.5.08-15.74,0-5.64-.07-8.71-3.21-8.75-8.95C206,386.26,206,378.51,206,370.77Zm16.21-15.52V387c2.48,0,4.7.07,6.91,0,5.69-.21,8.71-3.21,8.92-8.89.1-3,0-6,0-9,0-12.82-2-14.74-14.82-14.13A7.59,7.59,0,0,0,222.24,355.25Z"/><path class="cls-1" d="M166.08,362.82h16c0-5.17-.08-10.35,0-15.53.09-4.59,3-7.82,7.15-8.17,5-.42,8.62,2.79,8.7,8,.14,8.74.05,17.49.06,26.24,0,6.88.05,13.75,0,20.63-.06,5.55-3.12,8.94-7.91,9s-7.94-3.55-8-8.92c0-4.86,0-9.72,0-14.84H166.09c0,4.15,0,8.34,0,12.52a24,24,0,0,1-.53,5.56,7.66,7.66,0,0,1-7.53,5.63,7.77,7.77,0,0,1-7.52-5.66,15.42,15.42,0,0,1-.5-4.06q0-22.32,0-44.62c0-5.58,2.63-9,7-9.46,5.16-.55,8.88,2.87,9,8.58C166.19,352.68,166.08,357.64,166.08,362.82Z"/><path class="cls-1" d="M334.06,130.86a7.92,7.92,0,0,1-8-8.05A8.07,8.07,0,0,1,334,115a7.89,7.89,0,0,1,7.93,8.12A7.71,7.71,0,0,1,334.06,130.86Z"/><path class="cls-1" d="M126.18,130.86a7.73,7.73,0,0,1-8-7.94,7.88,7.88,0,0,1,7.75-7.92,8.05,8.05,0,0,1,8.11,8A7.9,7.9,0,0,1,126.18,130.86Z"/><path class="cls-1" d="M118.14,395a7.68,7.68,0,0,1,7.67-7.92,7.87,7.87,0,0,1,8.19,7.84,8.06,8.06,0,0,1-8.11,8A7.91,7.91,0,0,1,118.14,395Z"/><path class="cls-1" d="M334.09,387.08a7.69,7.69,0,0,1,7.82,7.77,7.9,7.9,0,0,1-8,8.1,8.1,8.1,0,0,1-7.91-7.86A7.9,7.9,0,0,1,334.09,387.08Z"/><path class="cls-1" d="M230,250.88a32,32,0,1,1,32.06-31.8A32.06,32.06,0,0,1,230,250.88ZM214.12,218.8A15.9,15.9,0,1,0,229.8,203,15.92,15.92,0,0,0,214.12,218.8Z"/></svg>