<svg id="ip" xmlns="http://www.w3.org/2000/svg" viewBox="0 0 458.82 516.71"><defs><style>.cls-1{fill:#424242;}</style></defs><title>ip</title><path class="cls-1" d="M351.52,294.69c36.08,9.54,54,42.5,50.94,72.12-3,28.73-25.13,52.83-53.81,58.49-25.93,5.12-62.54-6.69-76.22-44.74-62.87,30.06-140.29,10.94-183.78-45.39-43-55.72-41.31-135.5,4.07-189.3A151.47,151.47,0,0,1,280,109.28C340.63,141.43,378.27,217.4,351.52,294.69Zm-182.65-110c-9.07,15.23-25.12,59.68-27.11,75.33a3.75,3.75,0,0,0,1.51,2.85c6.47,4.42,9.55,10.48,8.67,18.25-.28,2.43.62,3.3,2.55,4.13,9.06,3.86,17.9,8.33,27.17,11.6,14.77,5.2,29.81,9.62,44.68,14.35,5.6-10.22,13.52-13.51,23.58-11.46,9.52-17.06,22.86-54.7,26.34-74.55a3.79,3.79,0,0,0-1.33-3.19C268.12,217.86,264.8,212,265,204a4,4,0,0,0-1.71-3.08,315.24,315.24,0,0,0-71.5-25.05,3.67,3.67,0,0,0-3.11.92C183.8,183.53,177.22,186,168.87,184.71ZM160.58,181c-1.59-2.65-3.66-5.47-5-8.6-.86-1.94-1.81-2.69-3.79-2.64-11.35.26-22.73,0-34,.85A68.7,68.7,0,0,0,87.23,180c-10.66,6.44-16.8,15.6-14.46,28.33a53.7,53.7,0,0,0,6.69,17.28c10,16.81,24.88,28.73,39.86,39.27,4.26-1.64,7.83-3.37,11.6-4.34,2-.53,2.8-1.19,3.31-3.19,2.47-9.53,4.61-19.2,7.9-28.44C147.86,212.85,154.36,197.06,160.58,181Zm70.25,151.63c-1.88-4-4.07-7.34-4.92-11-.63-2.71-1.7-3.65-4.12-4.2a319.77,319.77,0,0,1-69.7-24.62c-2.7-1.31-4.69-1.92-7.15.62a13.44,13.44,0,0,1-6.19,3.27c-2.48.63-3.23,1.84-3.14,4.16.51,12.58.39,25.22,1.62,37.73a58.58,58.58,0,0,0,11.11,29.84c6.06,8.1,14.12,12.44,24.31,11.05a45.63,45.63,0,0,0,14.19-4.39C206.07,365.42,219,349.12,230.83,332.67ZM193.24,167.81a332.81,332.81,0,0,1,74.07,26c4.57-2.54,8.16-5,12.13-6.53,2.19-.83,3.05-1.6,3-3.78-.28-10.11,0-20.26-.88-30.31-1-11.25-3.73-22.18-9.66-32-5.19-8.61-12.35-14.93-22.82-14.62a44.25,44.25,0,0,0-17.58,4.26c-18.78,9.12-31.63,24.81-43.46,41.41a3.68,3.68,0,0,0,.06,2.87C189.56,159,191.19,162.82,193.24,167.81Zm103.09,51.64c-1.65,1-2.86,1.94-4.2,2.59a11.3,11.3,0,0,1-4.21,1.45c-2.73.09-3.42,1.58-3.93,3.9A316.21,316.21,0,0,1,259.24,299c-1.59,3.26-2.68,5.94.58,8.77a5.37,5.37,0,0,1,1.65,3.29c.41,4.72,3.36,5.66,7.37,5.53a76.35,76.35,0,0,1,7.86.26c2.4.18,4.79.55,7.66.89.84-.92,2.06-2.33,3.36-3.66,14.08-14.49,31.23-21.6,51.41-20.83,3.54.14,4.87-.83,5.66-4,2.34-9.34-.08-17.84-4.54-25.88C329.85,244.56,313.61,231.59,296.33,219.45ZM67.45,221.21Q59.71,271,84.63,314.68c12.75,22.29,30.33,39.8,53.26,53-1.76-4.29-3.37-7.67-4.57-11.18-6.14-18.07-6.81-36.72-5.58-55.52.16-2.61,0-4.13-2.81-5.45a18,18,0,0,1-9.78-20.3c.48-2.28,0-3.53-1.93-4.91C94.6,257.17,77.73,242.35,67.45,221.21Zm16.94-49c22.77-11.38,46.38-11.55,70.12-10.24C160.12,149.67,165,147.1,179,148.52a4,4,0,0,0,2.85-1.7c13.28-18.38,28-35.12,49.33-45.06C185.59,92.28,118,112.1,84.39,172.18ZM350.7,264.72a142.26,142.26,0,0,0-15.4-88.92c-12.76-24.14-31-43.08-55.2-57.34,1.79,4.48,3.46,8.08,4.7,11.83,5.8,17.48,6.67,35.5,5.48,53.7-.15,2.32.09,3.73,2.48,5a18.1,18.1,0,0,1,9.1,21c-.7,2.6,0,3.7,2,5.09,12.79,8.87,24.76,18.72,34.37,31.05C342.75,252,346.51,258.42,350.7,264.72Zm-72,60.29c-5-.29-10-.69-14.93-.74-.94,0-2.25,1.2-2.81,2.18-3.48,6.13-8.81,10.63-15.62,9.78S235.82,339,233,343.49c-.2.32-.44.61-.67.91-12.34,16.06-25.87,30.78-44.73,39.47-.23.1-.29.56-.48.95,29.07,4.57,56.71.08,83.35-11.87C268.92,351.6,267.71,350.2,278.67,325Zm63.95,40.36c4.14,0,7.86.07,11.58,0,10.42-.25,18.29-7.9,18.41-17.84.13-10.31-7.46-18.09-18.13-18.44-4.87-.15-9.75-.09-14.62,0-3.94.07-5.14,1.24-5.15,5.26,0,18,0,36,0,54,0,2.79.76,5.16,4.07,5.08s3.89-2.47,3.87-5.26C342.58,380.78,342.62,373.41,342.62,365.37Zm-23.16-3.9c0-8.85,0-17.71,0-26.56,0-2.82-.25-5.55-3.85-5.62s-4.05,2.53-4.05,5.42q0,26.75,0,53.49c0,2.77.57,5.22,3.85,5.27,3.53,0,4.07-2.53,4.06-5.44C319.43,379.17,319.46,370.32,319.46,361.47Z"/><path class="cls-1" d="M385.1,221.71c0,2.29,0,4.28,0,6.28,0,4.61-1.28,6.9-4.1,6.64-4-.37-4-3.39-4-6.4a157.57,157.57,0,0,0-6.78-46.11A128.46,128.46,0,0,0,329,120c-.76-.63-2-1.15-2.2-1.94-.49-1.71-1.16-3.91-.49-5.28,1.09-2.21,3.53-2.27,5.46-.71,3.31,2.65,6.59,5.36,9.65,8.3C364.87,143,378.28,170.62,383,202.63,384,209,384.44,215.52,385.1,221.71Z"/><path class="cls-1" d="M153.72,412.47c-2.54-.58-4.12-.9-5.69-1.31-25-6.56-47.6-17.68-66.33-35.89-3.7-3.59-4.32-5.76-2.37-7.86s4.27-1.54,7.87,2c18,17.61,39.76,28,63.83,34.21,1.08.28,2.54.23,3.17.93,1.18,1.31,2.63,3.1,2.56,4.62C156.7,410.43,154.6,411.58,153.72,412.47Z"/><path class="cls-1" d="M303.92,95.1c4.41,2.42,8.44,4.35,12.1,6.85.8.54.89,3.52.15,4.55a4.92,4.92,0,0,1-4.43,1.38,44.94,44.94,0,0,1-9.67-4.8,5.1,5.1,0,0,1-1.69-4.34C300.64,97.45,302.49,96.48,303.92,95.1Z"/><path class="cls-1" d="M63.16,351.32c1.71-1.67,2.65-3.32,3.89-3.59a5,5,0,0,1,4.19,1.32,35.1,35.1,0,0,1,4.87,7.9,4.84,4.84,0,0,1-.64,4.33c-.85.91-3.69,1.5-4.18,1C68.44,358.94,66,355.29,63.16,351.32Z"/><path class="cls-1" d="M342.73,357.28V336.83c5.07.28,10.16.06,15,1,4.61.87,7.21,5.56,6.79,10.27a10,10,0,0,1-8.49,9.07,23.49,23.49,0,0,1-3.36.12C349.5,357.29,346.29,357.28,342.73,357.28Z"/></svg>