<?xml version="1.0" encoding="utf-8"?>
<!-- Generator: Adobe Illustrator 23.0.0, SVG Export Plug-In . SVG Version: 6.00 Build 0)  -->
<svg version="1.1" id="node" xmlns="http://www.w3.org/2000/svg" xmlns:xlink="http://www.w3.org/1999/xlink" x="0px" y="0px"
	 viewBox="0 0 458.8 516.7" style="enable-background:new 0 0 458.8 516.7;" xml:space="preserve">
<style type="text/css">
	.st0{fill:#424242;}
</style>
<path class="st0" d="M84.4,324.8v-133H62c-8.1,0-15.6-1.9-22.2-6.8c-9.4-6.9-14.5-16.3-14.6-27.9c-0.2-23.8-0.2-47.6,0-71.4
	c0.2-18.2,15.2-33.6,33.4-33.9c23.7-0.4,47.3-0.4,71,0c18.3,0.3,33,15.7,33.3,34c0.1,8.7,0,17.5,0,26.5h133c0.1-1.6,0.2-3.2,0.2-4.7
	c0-8.3-0.1-16.6,0.1-25c0.5-16.7,14.2-30.6,30.9-30.8c25.1-0.3,50.2-0.3,75.3,0c17.2,0.3,31.1,14.3,31.3,31.6
	c0.4,25.2,0.4,50.5,0,75.7c-0.3,18.9-14.5,32.3-33.5,32.7c-7,0.1-14,0-21.2,0v133c6.2,0,12.3-0.1,18.4,0c3.9,0,7.7,0.4,11.5,1.2
	c14.7,3.6,24.7,16.1,24.9,31.7c0.3,24.9,0.3,49.9,0,74.9c-0.2,18.4-14.4,32.2-32.8,32.3c-24.1,0.1-48.2,0.1-72.3,0
	c-18.4-0.1-32.2-14-32.5-32.5c-0.1-6.1,0-12.3,0-18.8H162.8c0,4.3-0.2,8.8,0,13.4c1.4,22.3-16.4,38.8-38.1,38.1
	c-20.9-0.7-41.9-0.1-62.8-0.1C40,464.9,25.1,450,25,428.3c0-22.1,0-44.2,0-66.3c0-21.9,15.1-37,37-37.2
	C69.3,324.8,76.7,324.8,84.4,324.8z M295.3,390.1c0.4-0.7,0.5-0.8,0.5-0.9c0.1-10.9,0-21.8,0.2-32.7c0.3-14.3,10-26.6,23.8-30.2
	c3.9-0.9,7.9-1.4,11.9-1.4c7.8-0.2,15.7-0.1,23.5-0.1v-133c-8.8,0-17.3,0.1-25.7,0c-19.1-0.3-33.1-13.9-33.5-32.6
	c-0.1-6.4,0-12.9,0-19.4c0-1.4-0.1-2.7-0.2-4.1h-133c0,7.4,0.2,14.4-0.1,21.4c-0.4,12.7-6.1,22.5-16.8,29.3
	c-6.1,3.9-12.9,5.3-20.1,5.3h-18v133c6.3,0,12.4-0.1,18.6,0c21.2,0.3,36.2,15.4,36.3,36.5c0,8,0,16.1,0,24.1v4.6L295.3,390.1z
	 M409.6,122.1c0-11.9,0-23.8,0-35.7c0-8.4-3.1-11.6-11.3-11.6c-22.8,0-45.6,0-68.4,0c-7.8,0-11,3.2-11.1,10.9c0,23.9,0,47.9,0,71.9
	c0,7.9,3.4,11.2,11.3,11.2c22.7,0,45.3,0,68,0c8.2,0,11.5-3.3,11.5-11.4C409.6,145.6,409.6,133.8,409.6,122.1L409.6,122.1z
	 M409.6,395.1c0-11.9,0-23.8,0-35.7c0-8.2-3.3-11.5-11.4-11.5c-22.7,0-45.3,0-68,0c-8.1,0-11.4,3.3-11.4,11.5c0,23.7,0,47.3,0,71
	c0,8.4,3.1,11.5,11.4,11.5c22.7,0,45.3,0,68,0c8.3,0,11.4-3.1,11.4-11.5C409.6,418.6,409.6,406.9,409.6,395.1L409.6,395.1z
	 M48.1,394.7c0,11.2,0,22.4,0,33.5c0,9,4.4,13.6,13.3,13.6c21.8,0.1,43.6,0.1,65.4,0c8.4,0,12.9-4.6,13-13.1c0.1-22.5,0.1-45,0-67.5
	c0-8.7-4.9-13.4-13.7-13.4c-21.3,0-42.7,0-64.1,0c-9,0-13.8,4.8-13.8,13.8C48,372.7,48.1,383.7,48.1,394.7L48.1,394.7z M48.1,121.3
	c0,11.6-0.1,23.2,0,34.8c0,8.1,4.5,12.6,12.5,12.6c21.8,0.1,43.6,0.1,65.4,0c8.2,0,12.7-4.6,12.7-12.9c0-22.8,0-45.6,0-68.4
	c0-8.3-4.4-12.7-12.8-12.7c-21.6-0.1-43.3-0.1-64.9,0c-8.7,0-12.8,4.3-12.9,13C48,99,48.1,110.2,48.1,121.3L48.1,121.3z"/>
</svg>
