<svg id="overview" xmlns="http://www.w3.org/2000/svg" viewBox="0 0 458.82 516.71"><defs><style>.cls-1{fill:#424242;}</style></defs><title>overview</title><path class="cls-1" d="M366.41,74.59c13.73,4.61,18.86,16.06,18.85,28.3q-.11,79.47,0,158.94c0,9.59-3.11,17.85-10.72,23.81a19.43,19.43,0,0,1-12,4.25c-32.35,0-64.71.17-97.06-.1-11.21-.09-20.21-9.31-22.22-22a46,46,0,0,1-.48-6.95q0-78.7-.05-157.42c0-8.84,2.18-16.91,8.67-23,2.85-2.68,7.05-3.94,10.63-5.85Zm-.6,107.73q0-39.6,0-79.2c0-4.66-.82-5.46-5.44-5.46H267.8c-4.82,0-5.62.76-5.62,5.62q0,78.9,0,157.79c0,4.66,1.1,5.76,5.64,5.76,30.75,0,61.5-.06,92.25.08,4.14,0,5.78-1.52,5.77-6C365.77,234.72,365.81,208.52,365.81,182.32Z"/><path class="cls-1" d="M74.49,251.21C76,247.28,77,243.12,79,239.48c4.19-7.67,10.87-11.29,19.75-11.23,21.75.14,43.5.05,65.24.05,9.31,0,18.63.39,27.91-.1,14.21-.75,22.88,10.48,24.58,22.07a52.92,52.92,0,0,1,.48,7.86q0,78,0,156c0,8.12-1.71,15.63-7.16,21.84-2.58,2.93-5.65,5.4-9.68,6.32a9.83,9.83,0,0,0-2.45,1.34H93.91A7.31,7.31,0,0,0,92,442.41c-6.63-1.6-11-6-13.88-11.8a93.61,93.61,0,0,1-3.61-9.46Zm19.42,84.47q0,39.6,0,79.19c0,4.49,1.2,5.67,5.71,5.67h92.23c4.35,0,5.68-1.33,5.68-5.76q0-78.88,0-157.77c0-4.88-.79-5.65-5.62-5.65H99.68c-5.11,0-5.77.66-5.77,5.74Q93.9,296.4,93.91,335.68Z"/><path class="cls-1" d="M197.69,74.59c12.89,3.88,19,14.11,19.13,26.12.29,23.54.18,47.09.05,70.64a27.42,27.42,0,0,1-9.84,21.5,19.65,19.65,0,0,1-13,4.82q-48.36-.09-96.72,0c-10.8,0-20-9.45-22.18-20.61-.15-.78-.44-1.53-.66-2.29V97.05c.13-.15.35-.28.37-.44,1.88-10.92,7.83-18.41,18.44-22ZM145.91,97.66h-47c-4,0-5,.9-5,5q0,33.53,0,67c0,3.92,1,4.88,4.85,4.89h93.72c3.88,0,5-1,5-4.77q.08-33.67,0-67.34c0-3.92-1-4.81-4.89-4.81Z"/><path class="cls-1" d="M262,443.6c-.41-.38-.77-1-1.26-1.11-11-3-15.57-11.16-17.56-21.44a32.12,32.12,0,0,1-.43-6.05q0-33.08,0-66.14c0-7.46,1.7-14.32,6.52-20.27a20.93,20.93,0,0,1,17.31-8.06c14.36.06,28.72,0,43.08,0,16.49,0,33,.57,49.46-.16s25.78,12.05,26,25.53c.36,24,.24,47.94,0,71.91C385,427,381,434.52,373.59,440c-1.57,1.16-3.71,1.54-5.55,2.34a22.33,22.33,0,0,0-2.23,1.26Zm51.9-100H267.5c-4.44,0-5.31.86-5.32,5.34q0,33.07,0,66.14c0,4,1.44,5.45,5.38,5.45h92.53c4.5,0,5.71-1.19,5.71-5.66q0-32.92,0-65.83c0-4.67-.78-5.43-5.47-5.44Z"/></svg>