<svg id="ram" xmlns="http://www.w3.org/2000/svg" viewBox="0 0 458.82 516.71"><defs><style>.cls-1{fill:#424242;}</style></defs><title>ram</title><path class="cls-1" d="M72.23,191.77C74,185.36,77.16,180,83.48,177.22c2.58-1.13,5.46-1.6,8.5-2.44,0-5.42,0-11.06,0-16.69A26.3,26.3,0,0,1,92,155a4.72,4.72,0,0,1,4.72-4.4,4.56,4.56,0,0,1,4.41,4.67c.12,5.44,0,10.89,0,16.33v3.46h20.39V161.33c0-2-.09-3.91,0-5.85.2-2.93,2.11-4.86,4.59-4.88s4.55,2,4.59,5.13c.07,6.35,0,12.7,0,19.27h20.39V157.75c0-4.75,1.46-7,4.53-7.15s4.72,2.24,4.72,7.18V175h20.38c0-5.4,0-10.81,0-16.22a29.53,29.53,0,0,1,.18-4,4.42,4.42,0,0,1,4.59-4.11,4.38,4.38,0,0,1,4.4,4.6c.12,5.65.05,11.3.08,16.95,0,.9.1,1.8.17,2.86h20.24c0-3.48,0-6.93,0-10.37,0-3-.09-6,.05-8.94.15-3.15,2.06-5.14,4.63-5.13s4.46,2,4.52,5.17c.1,5.24,0,10.48.05,15.72V175h20.47V159.24c0-1.23,0-2.47,0-3.7.2-3,2-4.87,4.46-4.93a4.63,4.63,0,0,1,4.65,4.76c.17,5.54.08,11.09.1,16.64v3h20.41V159.31c0-1.13,0-2.26,0-3.39.12-3.22,1.78-5.2,4.39-5.31s4.73,2,4.8,5.3c.11,5.65,0,11.3.05,17,0,.61.06,1.23.1,2.1h20.28c0-5,0-10,0-14.94,0-1.65,0-3.29.05-4.93a4.26,4.26,0,0,1,4.27-4.41,4.2,4.2,0,0,1,4.7,3.93,54.29,54.29,0,0,1,.21,6.76c0,4.49,0,9,0,13.67h20.38V164.76c0-3-.05-6,0-8.94.07-3.17,1.86-5.17,4.5-5.21s4.62,2,4.67,5.08c.12,6.36,0,12.71,0,19.3H358.8V162.76c0-1.85,0-3.7,0-5.55,0-4.38,1.65-6.68,4.69-6.61s4.54,2.33,4.55,6.49c0,5.94,0,11.89,0,18,1.88.33,3.61.5,5.27.95,8.49,2.29,14.11,9.49,14.43,18.54.13,3.38,0,6.78,0,10.17q0,58.54,0,117.1c0,10.12-5.44,17.64-14.47,20.07-1.66.45-3.39.62-5.26.95v16.75c0,1,.05,2.06-.05,3.08-.27,2.73-2.1,4.57-4.5,4.63a4.6,4.6,0,0,1-4.65-4.76c-.12-4.61,0-9.24-.05-13.86v-5.76H338.43v15.59c0,1.23.06,2.46,0,3.69-.21,3.13-2.09,5.13-4.7,5.09s-4.46-2-4.5-5.2c-.07-5.34,0-10.69,0-16v-3.2H308.8v6.58c0,4.21.08,8.43,0,12.63-.09,3.16-2,5.18-4.57,5.23s-4.59-2.05-4.62-5.41c-.05-6.24,0-12.49,0-19h-20.4v17.22c0,4.85-1.65,7.28-4.83,7.15s-4.41-2.3-4.42-7.15V342.82H249.5v15.09c0,1.54.06,3.09-.08,4.61-.27,2.9-2.23,4.82-4.67,4.77s-4.38-2-4.44-4.94c-.12-5.34-.05-10.68-.06-16v-3.49H219.78v10c0,3.08.06,6.16,0,9.24s-2,5.16-4.54,5.17-4.54-2-4.61-5.15c-.14-5.75-.05-11.5-.07-17.25,0-.6-.1-1.21-.16-2H190.11c0,5.88,0,11.6,0,17.33,0,4.8-1.41,7-4.48,7.08s-4.76-2.34-4.76-7.22c0-5.64,0-11.28,0-17.16H160.49v16.61c0,.82,0,1.65,0,2.47-.12,3.2-1.79,5.19-4.42,5.29s-4.72-2-4.78-5.29c-.1-6.26,0-12.53,0-19.06H130.86v14.32c0,1.75,0,3.5,0,5.24a4.5,4.5,0,0,1-4.3,4.76c-2.44.31-4.58-1.7-4.84-4.53-.18-1.84-.07-3.7-.08-5.55,0-4.52,0-9-.06-13.55a3.33,3.33,0,0,0-.26-.75H101.22v16.07c0,1.13,0,2.26,0,3.39-.15,2.94-1.91,4.87-4.45,5s-4.67-2-4.73-5c-.11-5.33,0-10.68,0-16v-2.57c-4.23-1.74-8.2-2.89-11.64-4.92-4.67-2.75-6.66-7.61-8.11-12.63ZM229.75,333.42H365.61c9.27,0,12.93-3.62,12.94-12.78,0-8.12-.09-16.23.05-24.34a5.44,5.44,0,0,0-2.7-5.22C365.54,284,359.7,274,359,261.44c-.85-14.77,5.23-26.44,17.28-35.05,1-.71,2.16-2.09,2.18-3.19q.24-14.31,0-28.64a9.34,9.34,0,0,0-6.19-9.1,17.67,17.67,0,0,0-6.32-.94q-136-.08-272,0H92.42c-6.79.21-10.89,4.31-10.93,11.09,0,9-.08,18.07.07,27.11a4.83,4.83,0,0,0,1.76,3.41c23.86,16.66,23.89,49.15.05,65.68a4.86,4.86,0,0,0-1.81,3.39c-.15,9-.09,18.07-.06,27.11a13.79,13.79,0,0,0,.36,3.34c1.33,5.19,5.28,7.81,11.73,7.81ZM81.69,236.83v44.22C95.15,271.28,95.16,246.91,81.69,236.83Zm296.76-.15c-15.87,13.3-11.43,36.86,0,44.08Z"/><path class="cls-1" d="M279.16,224.32v3.62q0,33.88,0,67.78a17.49,17.49,0,0,1-.36,4,4.47,4.47,0,0,1-8.73-.52,16.83,16.83,0,0,1-.13-2.46q0-35.43,0-70.86c0-8.08,5.23-12.32,13.06-10.68,4.08.85,6.13,3.75,7.46,7.42q6.1,16.92,12.29,33.82c.37,1,.8,2,1.45,3.65,4.42-12.14,8.58-23.59,12.76-35a45,45,0,0,1,1.81-4.56c2.3-4.6,6.81-6.54,12.19-5.34a9.47,9.47,0,0,1,7.46,9.67q.09,36.35,0,72.7c0,3.42-1.81,5.47-4.54,5.54s-4.67-2-4.67-5.63q0-34.5,0-69a11,11,0,0,0,0-2.15,12.74,12.74,0,0,0-.75-2.12c-.62.53-1.54.93-1.81,1.61-1.45,3.61-2.74,7.29-4.07,11-3.06,8.37-6,16.78-9.19,25.12-2.44,6.42-8.81,9.07-14,5.55a13.67,13.67,0,0,1-4.58-6.24c-4.38-11.38-8.42-22.89-12.63-34.34a20.61,20.61,0,0,0-1.69-3Z"/><path class="cls-1" d="M163.76,268.29l14.15,24.79c.51.89,1.06,1.76,1.51,2.68,1.39,2.8.76,5.44-1.54,6.72s-5,.34-6.51-2.28c-5.49-9.49-11-19-16.33-28.57-1.07-1.9-2.1-3.24-4.56-3.32-2.67-.09-4.09-2-4-4.56a4.19,4.19,0,0,1,4.29-4.35c3.18-.18,6.37-.1,9.53-.39a17.29,17.29,0,0,0,15.61-17.24c.06-9-6.46-16.69-15.39-17.36-7.25-.55-14.56-.31-21.84-.4-.8,0-1.61.1-2.87.17v3.65q0,34,0,68.06a19,19,0,0,1-.13,3.38c-.43,2.31-2.06,3.94-4.25,3.58-1.61-.27-3.24-1.72-4.38-3.05-.65-.77-.46-2.36-.46-3.57q0-37.28,0-74.53c0-5.5,1.44-7,7-6.93,9.23.07,18.48-.08,27.69.44,11.5.64,21.17,9.75,23.49,21.39a26.71,26.71,0,0,1-13.56,28.55C168.88,266.31,166.47,267.15,163.76,268.29Z"/><path class="cls-1" d="M206.8,274.12h19.62a32.34,32.34,0,0,1,4.3.19,4,4,0,0,1,3.75,4.17c.11,2.47-1.08,4.18-3.59,4.59a29.65,29.65,0,0,1-4.9.28c-6.47,0-12.94.08-19.4,0-2,0-2.88.6-3.29,2.62-.81,4-1.92,8-2.93,11.94s-3.06,5.69-6.07,4.94-3.94-3.14-2.9-7.29q7.16-28.64,14.33-57.27c.94-3.77,1.84-7.56,2.8-11.34,2.12-8.28,7.39-12.16,16.48-12.17s14.5,3.79,16.58,12.05q8.67,34.44,17.14,68.92a7.88,7.88,0,0,1-.8,5.71c-2.14,3.05-6.62,1.72-7.7-2.22-1.91-7-3.61-14.09-5.38-21.15q-6-23.86-11.9-47.74c-1.44-5.79-7-8.41-12.31-5.58a6.13,6.13,0,0,0-2.77,3.44c-3.85,14.88-7.53,29.81-11.24,44.72A4.45,4.45,0,0,0,206.8,274.12Z"/></svg>