<svg id="ssd" xmlns="http://www.w3.org/2000/svg" viewBox="0 0 458.82 516.71"><defs><style>.cls-1{fill:#424242;}</style></defs><title>ssd</title><path class="cls-1" d="M86,259V109.39c0-16.67,9.85-26.48,26.63-26.48h234.7c16.95,0,26.67,9.79,26.67,26.82V408.54c0,16.52-9.85,26.48-26.26,26.49Q229.86,435,112,435c-13.56,0-23.26-7.65-25.54-20.1a35.24,35.24,0,0,1-.37-6.34Q86,333.78,86,259ZM126,418.77c0-7.35,0-14.21,0-21.08,0-12.5,6.17-18.72,18.57-18.72H317.38c6.41,0,11.6,2.55,14.46,8.28A24.53,24.53,0,0,1,334,397c.31,7.19.09,14.4.09,22h13.14c8.39,0,10.86-2.51,10.86-11V110.19c0-8.76-2.38-11.16-11.09-11.16H113.05C104.33,99,102,101.42,102,110.2q0,148.85,0,297.69a21.44,21.44,0,0,0,.47,5.19c.79,3.21,3,5.44,6.25,5.61C114.29,419,119.89,418.77,126,418.77Zm48.25-23.68v23.59h15.53V395.09Zm95.92,23.55h15.71V395.25H270.14ZM157.83,395.17h-15.4v23.55h15.4Zm64,0H206.31V418.6h15.52Zm32,23.61V395.15H238.4v23.61Zm63.84-.06V395.19H302.23V418.7Z"/><path class="cls-1" d="M230,307H144.19C132.31,307,126,300.6,126,288.63q0-45.74,0-91.48c0-11.84,6.45-18.24,18.37-18.24H315.68c12.1,0,18.4,6.37,18.41,18.58q0,45.56,0,91.11c0,12.12-6.34,18.37-18.57,18.37Zm87.74-111.69H142.43v95.5H317.78Z"/><path class="cls-1" d="M341.91,123.07a7.71,7.71,0,0,1-7.81,7.79,7.92,7.92,0,0,1-8.05-8A8.08,8.08,0,0,1,334,115,7.89,7.89,0,0,1,341.91,123.07Z"/><path class="cls-1" d="M118.14,122.86A7.88,7.88,0,0,1,126,115a8,8,0,0,1,8,8.06,7.9,7.9,0,0,1-8.26,7.79A7.7,7.7,0,0,1,118.14,122.86Z"/><path class="cls-1" d="M118.16,354.42A7.92,7.92,0,0,1,126.4,347a8,8,0,0,1-.72,16A7.93,7.93,0,0,1,118.16,354.42Z"/><path class="cls-1" d="M341.91,355a7.92,7.92,0,0,1-7.73,8,8,8,0,1,1,.05-16A7.92,7.92,0,0,1,341.91,355Z"/><path class="cls-1" d="M254,242.94c0-7.62,0-15.25,0-22.87,0-5.95,3.1-9,9-9.09,5.12,0,10.25-.09,15.37,0A23.93,23.93,0,0,1,302,234.37c.14,5.74.14,11.5,0,17.24a23.72,23.72,0,0,1-22.9,23.21c-5.62.21-11.25.16-16.86,0-5.06-.12-8.11-3.22-8.17-8.31C254,258.68,254,250.81,254,242.94Zm16.13,16c2.68,0,4.92,0,7.16,0,5.27-.13,8.49-3,8.7-8.24s.15-10.48,0-15.71c-.1-3.52-1.76-6.56-5.26-7.38s-7-.61-10.59-.85Z"/><path class="cls-1" d="M181.88,259v-8.09c-2.85,0-5.56.08-8.26,0A15.81,15.81,0,0,1,158.05,235c-.07-2.87-.1-5.75,0-8.62A15.85,15.85,0,0,1,173.51,211c5.36-.16,10.74-.12,16.1,0,4.87.09,8.2,3.37,8.25,7.86s-3.14,7.81-8.05,8c-2.62.11-5.24,0-7.87,0h-7.69V235c2.63,0,5.21-.05,7.79,0a15.81,15.81,0,0,1,15.88,15.61c.11,3.12.12,6.25,0,9.37a15.5,15.5,0,0,1-15,14.86c-5.61.21-11.24.16-16.86,0-4.85-.11-8.11-3.51-8-8s3.47-7.74,8.31-7.83C171.41,258.9,176.51,259,181.88,259Z"/><path class="cls-1" d="M229.85,259v-8.11c-2.87,0-5.59.1-8.3,0a15.81,15.81,0,0,1-15.5-15.61q-.12-4.31,0-8.61A15.88,15.88,0,0,1,221.58,211c5.36-.15,10.73-.12,16.1,0,4.85.1,8.16,3.42,8.18,7.93s-3.19,7.81-8.12,7.93c-5.08.13-10.17,0-15.51,0V235c2.58,0,5,0,7.5,0,9.32.15,16,6.7,16.21,16.06.08,3,.1,6-.06,9a15.46,15.46,0,0,1-14.67,14.77c-5.73.25-11.48.19-17.22.06-4.71-.11-7.88-3.34-8-7.72a7.88,7.88,0,0,1,8-8.12C219.23,258.87,224.44,259,229.85,259Z"/></svg>