<svg id="twin" xmlns="http://www.w3.org/2000/svg" viewBox="0 0 458.82 516.71"><defs><style>.cls-1{fill:#424242;}</style></defs><title>twin</title><path class="cls-1" d="M48.61,243.49c1.75-6.69,3-13.54,5.35-20,4.24-12,11.08-22.55,19.17-32.34a34.28,34.28,0,0,0,4.69-7.4c5.66-12.24,14.32-21.95,24.37-30.77,13.57-11.92,29.81-17.46,47-21.11a41.5,41.5,0,0,0,8.33-2.75C179,119.52,201,112,224.65,110c24-2,47.5.13,69.8,9.23,18.08,7.37,35.43,16.63,50.09,29.79,11,9.88,21.31,20.61,31.48,31.39,6.53,6.91,12.36,14.48,18.3,21.93,10.58,13.27,16.95,28.13,16.63,45.44-.18,9.73-4.19,24.63-14.48,37.71,2.22,4.36,4.9,8.44,6.45,12.91,3,8.72,2.58,17.63-.14,26.41-5.51,17.74-17.45,30.2-32.32,40.67-11.1,7.82-23.35,12.34-36.72,15.68.85,3.69,1.66,7.3,2.52,10.91,2.54,10.54-2.32,16.74-13.17,16.77-5.54,0-11.11-.34-16.62.09-7.2.57-12.29-2.25-16.74-7.75-6.43-7.95-13.4-15.46-20.11-23.19-3.07-3.54-6-7.24-9.17-10.67-.81-.86-2.41-1.15-3.7-1.38-6.81-1.22-13.88-1.64-20.4-3.74-5-1.6-9.58-4.93-13.77-8.22-2.32-1.83-4.06-2.37-6.85-1.82-11.55,2.26-23.16,2.83-34.76.3-9.65-2.1-18.42-6.19-25.26-13.35-4.43-4.64-7.93-10.16-12.06-15.55-4.36,1.44-9.07,3.2-13.89,4.54-9.21,2.56-18.56,3.39-27.95,1C88.12,325.65,78.23,317.35,71.57,305a26.07,26.07,0,0,0-3-4.37c-10.33-12.25-17.37-26-19.45-42a9.19,9.19,0,0,0-.54-1.66Zm116.21,69.75c4.62,9.84,15.31,16.6,27.62,17.34,9.79.58,19.25-1.16,28.65-3.58,7.72-2,12.3,0,15.45,7.19,1.73,3.93,4.47,6.44,8.52,7.11a99.38,99.38,0,0,0,16.45,1.79,16.43,16.43,0,0,1,13.55,6.12c9.81,11.43,19.92,22.62,29.82,34,1.79,2.06,3.63,2.66,6.18,1.56-.85-3.56-1.75-7-2.47-10.43-1.61-7.72,2.92-13.89,10.77-14.74a90.67,90.67,0,0,0,31.35-9.23c13-6.57,23.28-15.9,29.39-29.31,3.69-8.08,2.74-19-6.83-24.79-6.72-4.06-7-12.18-1.58-17.94a100.91,100.91,0,0,0,8.65-10.18c9.92-13.77,10.51-28.19,1.91-42.72a106.65,106.65,0,0,0-10.34-13.79c-8.64-10.34-17.47-20.53-26.43-31a42.37,42.37,0,0,1-19.83,20.13A11,11,0,0,1,313.9,200a10.52,10.52,0,0,1-4.8-10.7,12.77,12.77,0,0,1,6.65-9.81c5.32-2.92,9.1-7.08,10.48-13.08a3.41,3.41,0,0,0-.85-2.9c-10.44-7.4-20.69-15.14-32.74-19.84a5.55,5.55,0,0,0-4.41.53A46.86,46.86,0,0,0,268.72,171c-2.33,8.32-1.84,16.8-1.33,25.3.38,6.47-3.81,11.35-9.91,12.06S246,205,244.87,198.58a58.78,58.78,0,0,1-.64-7.4c-.82-20.4,3.89-39,17.86-54.59a19.34,19.34,0,0,0,1.19-1.76c-26.63-4.39-52-1-76.73,7.48,2.6,4,5,7.53,7.3,11.21a10.76,10.76,0,0,1-.11,12c-2.4,3.83-6,5.47-10.53,5.18-4.92-.32-7.74-3.52-10.17-7.32-4.71-7.39-11.23-10.11-20-8.42-25.38,4.89-45.06,17.35-56,41.53a34.26,34.26,0,0,0-2.79,9.79c-2,15.8,7.07,34.14,27.7,34.29,4.2,0,7,2.27,9,5.73,2.23,3.74,2.63,7.56.62,11.44A10.59,10.59,0,0,1,122,264a45.77,45.77,0,0,1-9.14-.71c-13.27-2.53-24.32-8.6-31.59-20.45-2.1-3.43-4.11-6.92-6.33-10.67-3.38,9-4.65,17.91-2.51,27,4.41,18.79,16.92,32.22,30.29,45,4.06,3.9,9,4.17,14.11,3.31,9.12-1.53,17.51-5.29,25.55-9.59a87.85,87.85,0,0,0,15.35-10.55c4.73-4,6.16-9.42,4.27-15.71a11.12,11.12,0,0,1,7.65-14.24c6-1.81,12,1.49,14.14,7.89,4.21,12.7,1.59,24.25-6.54,34.54C173.57,304.46,169.19,308.56,164.82,313.24Z"/><path class="cls-1" d="M283.29,266c2.34-7.15,3.15-14.3,1.51-21.64-1.16-5.15-4.2-8.76-8.68-11.46A10.74,10.74,0,0,1,271,220.71c1.24-4.68,4.15-8.18,9-9.35a8.26,8.26,0,0,1,8.37,2.23c1.62,1.64,3.94,2.59,5.74,4.09,8.92,7.46,13.13,17.31,14.13,28.68a62.56,62.56,0,0,1-3.19,26.47c-1,2.82-.48,4.31,2.08,6a58.33,58.33,0,0,1,18,18.25c5.45,8.94,7.95,18.6,5.9,29.07A11.09,11.09,0,0,1,318.45,335c-5.86-.76-10.72-6.06-9.77-11.83,1.28-7.76-2-13.92-6.74-18.9-10.59-11.09-23.8-17.12-39.39-17-7.06.05-12.67,2.84-16.5,9.11a11.13,11.13,0,0,1-15.67,3.94c-5.38-3.28-7-10-3.71-15.76,8.72-15.43,22.48-21.42,39.56-20.72C271.83,264.08,277.4,265.2,283.29,266Z"/><path class="cls-1" d="M194.25,226.29a54.14,54.14,0,0,1-25.3,5.13c-9.18-.49-17.29-3.49-23.4-10.7-4.78-5.63-4.52-13.06.49-17.43s11.16-3.55,16.7,1.57a12.33,12.33,0,0,0,7.21,3,30.32,30.32,0,0,0,23.36-9,8.85,8.85,0,0,0,2.7-9c-1.45-6.2,1.3-11.63,6.42-13.86,4.82-2.1,11-.86,13.47,3.61a29.82,29.82,0,0,1,3.15,10.68,26.71,26.71,0,0,1-4.36,17.85c-1.11,1.76-1,2.9.05,4.67,3.5,5.84,8.43,8.08,14.68,6.28a11.36,11.36,0,0,1,7.84,21.28c-8.74,3.88-17.66,3.83-25.83-1C205.55,235.92,200.46,231.1,194.25,226.29Z"/><path class="cls-1" d="M340.52,259.3c-7.41-.08-12.18-4.16-13-9.54-.91-6,2.12-11.8,7.61-13.19a213.19,213.19,0,0,1,21.13-4.16c5.15-.75,10.3,3.38,11.55,8.49,1.48,6-1.09,12.3-6.68,13.91C353.79,256.92,346.2,258.1,340.52,259.3Z"/></svg>