<svg xmlns="http://www.w3.org/2000/svg" data-name="Layer 1" viewBox="0 0 64 80" x="0px" y="0px"><path d="M21.63,10a1,1,0,0,0,.726-.313C24.355,7.572,27.6,6.5,32,6.5a1,1,0,0,0,0-2c-4.972,0-8.7,1.283-11.1,3.813A1,1,0,0,0,21.63,10Z" fill="#ffffff"/><path d="M50,12.917C49.986,12.788,48.727,0,32,0S14.014,12.788,14,13V63a1,1,0,0,0,1,1h3a1,1,0,0,0,.97-.757l2.806-11.222L28,55.58V59a1,1,0,0,0,1,1h6a1,1,0,0,0,1-1V55.58l6.226-3.555,2.8,11.217A1,1,0,0,0,46,64h3a1,1,0,0,0,1-1ZM16,46V37h5a1,1,0,0,0,0-2H16V26H38a1,1,0,0,0,0-2H16V15H48v9H43a1,1,0,0,0,0,2h5v9H29a1,1,0,0,0,0,2H48v9ZM32,2C46.839,2,47.963,12.633,48,13H16.005C16.132,11.9,17.677,2,32,2ZM17.22,62H16V48h4.719ZM30,58V56h4v2Zm4.734-4H29.266L22.28,50.005l.5-2.005H41.219l.5,2.01Zm12.047,8-3.5-14H48V62Z" fill="#ffffff"/><circle cx="25" cy="36" r="1" fill="#ffffff"/><text x="0" y="79" fill="#ffffff" font-size="5px" font-weight="bold" font-family="'Helvetica Neue', Helvetica, Arial-Unicode, Arial, Sans-serif">Created by Supanut Piyakanont</text><text x="0" y="84" fill="#ffffff" font-size="5px" font-weight="bold" font-family="'Helvetica Neue', Helvetica, Arial-Unicode, Arial, Sans-serif">from the Noun Project</text></svg>